<svg xmlns="http://www.w3.org/2000/svg" width="24" height="25" fill="none" viewBox="0 0 24 25"><path fill="#21535F" d="M19.95 21.5C17.8 21.5 15.7043 21.025 13.663 20.075C11.621 19.125 9.81267 17.8583 8.238 16.275C6.66267 14.6917 5.396 12.879 4.438 10.837C3.47933 8.79567 3 6.7 3 4.55V4.025C3 3.84167 3.01667 3.66667 3.05 3.5H8.9L9.825 8.525L6.975 11.4C7.675 12.6 8.55433 13.725 9.613 14.775C10.671 15.825 11.8333 16.7333 13.1 17.5L16 14.6L21 15.6V21.45C20.8333 21.4667 20.6583 21.4793 20.475 21.488C20.2917 21.496 20.1167 21.5 19.95 21.5Z"/></svg>